<?xml version="1.0" encoding="UTF-8"?>

<svg version="1.2" baseProfile="tiny" width="160.62mm" height="11mm" viewBox="3700 11500 16062 1100" preserveAspectRatio="xMidYMid" fill-rule="evenodd" stroke-width="28.222" stroke-linejoin="round" xmlns="http://www.w3.org/2000/svg" xmlns:ooo="http://xml.openoffice.org/svg/export" xmlns:xlink="http://www.w3.org/1999/xlink" xmlns:presentation="http://sun.com/xmlns/staroffice/presentation" xmlns:smil="http://www.w3.org/2001/SMIL20/" xmlns:anim="urn:oasis:names:tc:opendocument:xmlns:animation:1.0" xml:space="preserve">
 <defs class="ClipPathGroup">
  <clipPath id="presentation_clip_path" clipPathUnits="userSpaceOnUse">
   <rect x="3700" y="11500" width="16062" height="1100"/>
  </clipPath>
 </defs>
 <defs class="TextShapeIndex">
  <g ooo:slide="id1" ooo:id-list="id3 id4 id5 id6 id7 id8 id9 id10 id11 id12 id13 id14 id15 id16 id17 id18 id19 id20 id21 id22 id23 id24 id25 id26 id27 id28 id29 id30 id31 id32 id33 id34 id35 id36 id37 id38 id39 id40 id41 id42 id43 id44 id45 id46 id47 id48 id49 id50 id51 id52 id53 id54 id55 id56 id57 id58 id59 id60"/>
 </defs>
 <defs class="EmbeddedBulletChars">
  <g id="bullet-char-template(57356)" transform="scale(0.00048828125,-0.00048828125)">
   <path d="M 580,1141 L 1163,571 580,0 -4,571 580,1141 Z"/>
  </g>
  <g id="bullet-char-template(57354)" transform="scale(0.00048828125,-0.00048828125)">
   <path d="M 8,1128 L 1137,1128 1137,0 8,0 8,1128 Z"/>
  </g>
  <g id="bullet-char-template(10146)" transform="scale(0.00048828125,-0.00048828125)">
   <path d="M 174,0 L 602,739 174,1481 1456,739 174,0 Z M 1358,739 L 309,1346 659,739 1358,739 Z"/>
  </g>
  <g id="bullet-char-template(10132)" transform="scale(0.00048828125,-0.00048828125)">
   <path d="M 2015,739 L 1276,0 717,0 1260,543 174,543 174,936 1260,936 717,1481 1274,1481 2015,739 Z"/>
  </g>
  <g id="bullet-char-template(10007)" transform="scale(0.00048828125,-0.00048828125)">
   <path d="M 0,-2 C -7,14 -16,27 -25,37 L 356,567 C 262,823 215,952 215,954 215,979 228,992 255,992 264,992 276,990 289,987 310,991 331,999 354,1012 L 381,999 492,748 772,1049 836,1024 860,1049 C 881,1039 901,1025 922,1006 886,937 835,863 770,784 769,783 710,716 594,584 L 774,223 C 774,196 753,168 711,139 L 727,119 C 717,90 699,76 672,76 641,76 570,178 457,381 L 164,-76 C 142,-110 111,-127 72,-127 30,-127 9,-110 8,-76 1,-67 -2,-52 -2,-32 -2,-23 -1,-13 0,-2 Z"/>
  </g>
  <g id="bullet-char-template(10004)" transform="scale(0.00048828125,-0.00048828125)">
   <path d="M 285,-33 C 182,-33 111,30 74,156 52,228 41,333 41,471 41,549 55,616 82,672 116,743 169,778 240,778 293,778 328,747 346,684 L 369,508 C 377,444 397,411 428,410 L 1163,1116 C 1174,1127 1196,1133 1229,1133 1271,1133 1292,1118 1292,1087 L 1292,965 C 1292,929 1282,901 1262,881 L 442,47 C 390,-6 338,-33 285,-33 Z"/>
  </g>
  <g id="bullet-char-template(9679)" transform="scale(0.00048828125,-0.00048828125)">
   <path d="M 813,0 C 632,0 489,54 383,161 276,268 223,411 223,592 223,773 276,916 383,1023 489,1130 632,1184 813,1184 992,1184 1136,1130 1245,1023 1353,916 1407,772 1407,592 1407,412 1353,268 1245,161 1136,54 992,0 813,0 Z"/>
  </g>
  <g id="bullet-char-template(8226)" transform="scale(0.00048828125,-0.00048828125)">
   <path d="M 346,457 C 273,457 209,483 155,535 101,586 74,649 74,723 74,796 101,859 155,911 209,963 273,989 346,989 419,989 480,963 531,910 582,859 608,796 608,723 608,648 583,586 532,535 482,483 420,457 346,457 Z"/>
  </g>
  <g id="bullet-char-template(8211)" transform="scale(0.00048828125,-0.00048828125)">
   <path d="M -4,459 L 1135,459 1135,606 -4,606 -4,459 Z"/>
  </g>
 </defs>
 <defs class="TextEmbeddedBitmaps"/>
 <g class="SlideGroup">
  <g>
   <g id="id1" class="Slide" clip-path="url(#presentation_clip_path)">
    <g class="Page">
     <g class="Group">
      <g class="Group">
       <g class="com.sun.star.drawing.PolyPolygonShape">
        <g id="id3">
         <rect class="BoundingBox" stroke="none" fill="none" x="3700" y="11508" width="10274" height="1069"/>
         <path fill="rgb(255,255,255)" stroke="none" d="M 8837,12576 L 3700,12576 3700,11509 13973,11509 13973,12576 8837,12576 Z"/>
        </g>
       </g>
       <g class="com.sun.star.drawing.ClosedBezierShape">
        <g id="id4">
         <rect class="BoundingBox" stroke="none" fill="none" x="3718" y="11769" width="316" height="429"/>
         <path fill="rgb(0,0,0)" stroke="none" d="M 4017,11770 L 3718,11770 3718,11789 3731,11789 C 3774,11789 3774,11797 3774,11820 L 3774,12146 C 3774,12169 3774,12176 3731,12176 L 3718,12176 3718,12196 C 3737,12194 3780,12194 3801,12194 3823,12194 3872,12194 3892,12196 L 3892,12176 3874,12176 C 3823,12176 3823,12168 3823,12146 L 3823,11992 3869,11992 C 3921,11992 3928,12013 3928,12066 L 3940,12066 3940,11900 3928,11900 C 3928,11953 3921,11972 3869,11972 L 3823,11972 3823,11814 C 3823,11793 3825,11789 3849,11789 L 3915,11789 C 3995,11789 4009,11825 4018,11910 L 4032,11910 4017,11770 Z"/>
        </g>
       </g>
       <g class="com.sun.star.drawing.ClosedBezierShape">
        <g id="id5">
         <rect class="BoundingBox" stroke="none" fill="none" x="4261" y="11965" width="363" height="149"/>
         <path fill="rgb(0,0,0)" stroke="none" d="M 4604,11990 C 4612,11990 4622,11990 4622,11978 4622,11965 4612,11965 4604,11965 L 4280,11965 C 4272,11965 4261,11965 4261,11978 4261,11990 4272,11990 4280,11990 L 4604,11990 Z M 4604,12113 C 4612,12113 4622,12113 4622,12100 4622,12088 4612,12088 4604,12088 L 4280,12088 C 4272,12088 4261,12088 4261,12100 4261,12113 4272,12113 4280,12113 L 4604,12113 Z"/>
        </g>
       </g>
       <g class="com.sun.star.drawing.ClosedBezierShape">
        <g id="id6">
         <rect class="BoundingBox" stroke="none" fill="none" x="4860" y="11725" width="513" height="627"/>
         <path fill="rgb(0,0,0)" stroke="none" d="M 5059,12059 L 4867,12335 C 4862,12340 4861,12342 4861,12345 4861,12351 4867,12351 4876,12351 L 5325,12351 5371,12196 5359,12196 C 5345,12242 5308,12281 5262,12299 5254,12303 5216,12317 5136,12317 L 4907,12317 5094,12049 C 5098,12043 5099,12042 5099,12038 5099,12036 5099,12034 5096,12029 L 4919,11750 5134,11750 C 5196,11750 5320,11756 5359,11871 L 5371,11871 5325,11725 4876,11725 C 4861,11725 4861,11725 4861,11745 L 5059,12059 Z"/>
        </g>
       </g>
       <g class="com.sun.star.drawing.ClosedBezierShape">
        <g id="id7">
         <rect class="BoundingBox" stroke="none" fill="none" x="5443" y="12053" width="102" height="441"/>
         <path fill="rgb(0,0,0)" stroke="none" d="M 5536,12054 C 5463,12113 5443,12205 5443,12272 5443,12335 5459,12430 5536,12493 5539,12493 5543,12493 5543,12487 5543,12484 5542,12484 5539,12480 5488,12427 5470,12352 5470,12274 5470,12155 5510,12097 5540,12065 5542,12063 5543,12061 5543,12059 5543,12054 5539,12054 5536,12054 Z"/>
        </g>
       </g>
       <g class="com.sun.star.drawing.ClosedBezierShape">
        <g id="id8">
         <rect class="BoundingBox" stroke="none" fill="none" x="5586" y="12091" width="119" height="298"/>
         <path fill="rgb(0,0,0)" stroke="none" d="M 5692,12107 C 5692,12100 5688,12091 5677,12091 5666,12091 5656,12102 5656,12116 5656,12123 5660,12132 5671,12132 5682,12132 5692,12120 5692,12107 Z M 5614,12331 C 5613,12336 5611,12342 5611,12351 5611,12370 5626,12388 5648,12388 5686,12388 5703,12326 5703,12320 5703,12313 5697,12313 5697,12313 5691,12313 5691,12317 5689,12322 5680,12356 5663,12375 5648,12375 5640,12375 5639,12368 5639,12359 5639,12349 5642,12342 5645,12331 5649,12319 5653,12308 5657,12295 5660,12285 5674,12246 5676,12240 5677,12235 5679,12230 5679,12226 5679,12205 5663,12189 5642,12189 5603,12189 5586,12249 5586,12256 5586,12262 5591,12262 5593,12262 5599,12262 5599,12260 5600,12255 5609,12217 5626,12201 5640,12201 5646,12201 5651,12205 5651,12217 5651,12226 5648,12233 5639,12260 L 5614,12331 Z"/>
        </g>
       </g>
       <g class="com.sun.star.drawing.ClosedBezierShape">
        <g id="id9">
         <rect class="BoundingBox" stroke="none" fill="none" x="5763" y="12330" width="51" height="139"/>
         <path fill="rgb(0,0,0)" stroke="none" d="M 5802,12375 C 5802,12398 5799,12427 5771,12455 5769,12457 5769,12459 5769,12461 5769,12464 5772,12468 5774,12468 5780,12468 5812,12432 5812,12379 5812,12352 5803,12331 5785,12331 5772,12331 5763,12342 5763,12356 5763,12370 5772,12382 5786,12382 5795,12382 5802,12375 5802,12375 Z"/>
        </g>
       </g>
       <g class="com.sun.star.drawing.ClosedBezierShape">
        <g id="id10">
         <rect class="BoundingBox" stroke="none" fill="none" x="5849" y="12091" width="169" height="382"/>
         <path fill="rgb(0,0,0)" stroke="none" d="M 6017,12107 C 6017,12100 6012,12091 6002,12091 5991,12091 5980,12104 5980,12116 5980,12123 5985,12132 5995,12132 6006,12132 6017,12121 6017,12107 Z M 5935,12404 C 5929,12434 5909,12459 5886,12459 5882,12459 5877,12459 5872,12457 5883,12452 5886,12441 5886,12434 5886,12423 5879,12418 5871,12418 5859,12418 5849,12430 5849,12445 5849,12461 5865,12471 5888,12471 5911,12471 5955,12455 5966,12402 L 6002,12246 C 6002,12240 6003,12237 6003,12230 6003,12207 5985,12189 5962,12189 5920,12189 5895,12249 5895,12256 5895,12262 5900,12262 5902,12262 5906,12262 5906,12260 5909,12253 5918,12228 5938,12201 5962,12201 5971,12201 5974,12208 5974,12223 5974,12228 5972,12233 5972,12235 L 5935,12404 Z"/>
        </g>
       </g>
       <g class="com.sun.star.drawing.ClosedBezierShape">
        <g id="id11">
         <rect class="BoundingBox" stroke="none" fill="none" x="6075" y="12053" width="102" height="441"/>
         <path fill="rgb(0,0,0)" stroke="none" d="M 6083,12054 C 6080,12054 6075,12054 6075,12059 6075,12061 6077,12063 6078,12066 6112,12100 6149,12161 6149,12272 6149,12365 6123,12434 6081,12477 6075,12484 6075,12485 6075,12487 6075,12489 6077,12493 6080,12493 6085,12493 6121,12462 6146,12409 6163,12372 6175,12324 6175,12274 6175,12212 6158,12116 6083,12054 Z"/>
        </g>
       </g>
       <g class="com.sun.star.drawing.PolyPolygonShape">
        <g id="id12">
         <rect class="BoundingBox" stroke="none" fill="none" x="6445" y="11663" width="107" height="751"/>
         <path fill="rgb(0,0,0)" stroke="none" d="M 6446,12413 L 6550,12413 6550,12388 6467,12388 6467,11688 6550,11688 6550,11663 6446,11663 6446,12413 Z"/>
        </g>
       </g>
       <g class="com.sun.star.drawing.ClosedBezierShape">
        <g id="id13">
         <rect class="BoundingBox" stroke="none" fill="none" x="6731" y="11645" width="198" height="311"/>
         <path fill="rgb(0,0,0)" stroke="none" d="M 6925,11658 C 6927,11658 6927,11653 6927,11651 6927,11649 6925,11646 6921,11646 6915,11646 6882,11649 6873,11649 6870,11651 6864,11651 6864,11660 6864,11667 6870,11667 6875,11667 6893,11667 6893,11669 6893,11672 6893,11676 6892,11679 6892,11683 L 6869,11782 C 6861,11768 6849,11757 6830,11757 6781,11757 6732,11818 6732,11882 6732,11924 6756,11955 6789,11955 6810,11955 6829,11942 6844,11924 6850,11951 6873,11955 6882,11955 6896,11955 6906,11946 6913,11931 6921,11914 6925,11889 6925,11887 6925,11882 6921,11882 6919,11882 6915,11882 6915,11884 6912,11896 6907,11917 6899,11942 6884,11942 6873,11942 6872,11933 6872,11921 6872,11912 6872,11908 6873,11903 L 6925,11658 Z M 6846,11896 C 6842,11908 6833,11917 6826,11924 6822,11928 6807,11942 6790,11942 6776,11942 6763,11931 6763,11900 6763,11876 6773,11828 6783,11811 6799,11775 6819,11770 6830,11770 6856,11770 6864,11802 6864,11807 6864,11809 6864,11813 6862,11814 L 6846,11896 Z"/>
        </g>
       </g>
       <g class="com.sun.star.drawing.PolyPolygonShape">
        <g id="id14">
         <rect class="BoundingBox" stroke="none" fill="none" x="6627" y="12025" width="391" height="29"/>
         <path fill="rgb(0,0,0)" stroke="none" d="M 6822,12052 L 6627,12052 6627,12026 7016,12026 7016,12052 6822,12052 Z"/>
        </g>
       </g>
       <g class="com.sun.star.drawing.ClosedBezierShape">
        <g id="id15">
         <rect class="BoundingBox" stroke="none" fill="none" x="6650" y="12105" width="197" height="311"/>
         <path fill="rgb(0,0,0)" stroke="none" d="M 6844,12118 C 6846,12118 6846,12113 6846,12111 6846,12109 6844,12105 6839,12105 6833,12105 6801,12109 6792,12109 6789,12111 6783,12111 6783,12120 6783,12127 6789,12127 6793,12127 6812,12127 6812,12129 6812,12132 6812,12136 6810,12139 6810,12143 L 6787,12242 C 6779,12228 6767,12217 6749,12217 6699,12217 6650,12278 6650,12342 6650,12384 6675,12414 6707,12414 6729,12414 6747,12402 6763,12384 6769,12411 6792,12414 6801,12414 6815,12414 6824,12406 6832,12391 6839,12374 6844,12349 6844,12347 6844,12342 6839,12342 6838,12342 6833,12342 6833,12343 6830,12356 6826,12377 6818,12402 6803,12402 6792,12402 6790,12393 6790,12381 6790,12372 6790,12368 6792,12363 L 6844,12118 Z M 6764,12356 C 6761,12368 6752,12377 6744,12384 6741,12388 6726,12402 6709,12402 6695,12402 6681,12391 6681,12359 6681,12336 6692,12288 6701,12271 6718,12235 6738,12230 6749,12230 6775,12230 6783,12262 6783,12267 6783,12269 6783,12272 6781,12274 L 6764,12356 Z"/>
        </g>
       </g>
       <g class="com.sun.star.drawing.ClosedBezierShape">
        <g id="id16">
         <rect class="BoundingBox" stroke="none" fill="none" x="6867" y="12135" width="131" height="281"/>
         <path fill="rgb(0,0,0)" stroke="none" d="M 6945,12237 L 6984,12237 C 6992,12237 6996,12237 6996,12228 6996,12221 6992,12221 6985,12221 L 6949,12221 6962,12155 C 6964,12153 6964,12152 6964,12150 6964,12141 6959,12136 6952,12136 6941,12136 6936,12143 6933,12155 6930,12166 6935,12145 6918,12221 L 6879,12221 C 6872,12221 6867,12221 6867,12230 6867,12237 6872,12237 6878,12237 L 6915,12237 6892,12340 C 6890,12352 6887,12366 6887,12374 6887,12398 6906,12414 6927,12414 6970,12414 6995,12354 6995,12347 6995,12342 6989,12342 6989,12342 6984,12342 6982,12343 6979,12351 6969,12377 6950,12402 6929,12402 6921,12402 6915,12397 6915,12381 6915,12377 6916,12366 6918,12363 L 6945,12237 Z"/>
        </g>
       </g>
       <g class="com.sun.star.drawing.ClosedBezierShape">
        <g id="id17">
         <rect class="BoundingBox" stroke="none" fill="none" x="7096" y="11919" width="272" height="286"/>
         <path fill="rgb(0,0,0)" stroke="none" d="M 7262,12008 C 7265,11990 7278,11933 7316,11933 7319,11933 7331,11933 7342,11940 7328,11944 7318,11960 7318,11974 7318,11985 7322,11997 7338,11997 7350,11997 7367,11985 7367,11960 7367,11928 7334,11919 7316,11919 7285,11919 7265,11953 7259,11967 7245,11926 7216,11919 7201,11919 7144,11919 7113,12001 7113,12015 7113,12022 7118,12022 7119,12022 7124,12022 7125,12020 7127,12015 7145,11949 7181,11933 7199,11933 7210,11933 7228,11939 7228,11974 7228,11994 7219,12036 7199,12125 7190,12164 7171,12189 7148,12189 7144,12189 7132,12189 7121,12182 7135,12178 7145,12166 7145,12148 7145,12130 7135,12125 7125,12125 7110,12125 7096,12143 7096,12162 7096,12191 7124,12203 7147,12203 7184,12203 7202,12159 7204,12155 7211,12178 7230,12203 7262,12203 7319,12203 7350,12123 7350,12107 7350,12100 7345,12100 7344,12100 7339,12100 7338,12104 7336,12107 7319,12175 7282,12189 7264,12189 7242,12189 7235,12169 7235,12148 7235,12134 7238,12121 7244,12093 L 7262,12008 Z"/>
        </g>
       </g>
       <g class="com.sun.star.drawing.ClosedBezierShape">
        <g id="id18">
         <rect class="BoundingBox" stroke="none" fill="none" x="7411" y="11677" width="171" height="293"/>
         <path fill="rgb(0,0,0)" stroke="none" d="M 7580,11889 L 7567,11889 C 7567,11900 7562,11924 7557,11930 7554,11931 7525,11931 7519,11931 L 7450,11931 C 7490,11891 7502,11878 7525,11859 7554,11832 7580,11805 7580,11763 7580,11710 7539,11678 7491,11678 7444,11678 7411,11717 7411,11756 7411,11779 7428,11781 7431,11781 7441,11781 7451,11773 7451,11757 7451,11750 7450,11734 7430,11734 7441,11702 7467,11694 7485,11694 7524,11694 7544,11727 7544,11763 7544,11802 7519,11832 7507,11848 L 7414,11953 C 7411,11956 7411,11956 7411,11969 L 7568,11969 7580,11889 Z"/>
        </g>
       </g>
       <g class="com.sun.star.drawing.ClosedBezierShape">
        <g id="id19">
         <rect class="BoundingBox" stroke="none" fill="none" x="7405" y="12066" width="119" height="298"/>
         <path fill="rgb(0,0,0)" stroke="none" d="M 7511,12082 C 7511,12075 7507,12066 7496,12066 7485,12066 7474,12077 7474,12091 7474,12098 7479,12107 7490,12107 7500,12107 7511,12095 7511,12082 Z M 7433,12306 C 7431,12311 7430,12317 7430,12326 7430,12345 7445,12363 7467,12363 7505,12363 7522,12301 7522,12295 7522,12288 7516,12288 7516,12288 7510,12288 7510,12292 7508,12297 7499,12331 7482,12351 7467,12351 7459,12351 7457,12343 7457,12335 7457,12324 7461,12317 7464,12306 7468,12294 7471,12283 7476,12271 7479,12260 7493,12221 7494,12216 7496,12210 7497,12205 7497,12201 7497,12180 7482,12164 7461,12164 7422,12164 7405,12224 7405,12232 7405,12237 7411,12237 7411,12237 7417,12237 7417,12235 7419,12230 7428,12192 7445,12176 7459,12176 7465,12176 7470,12180 7470,12192 7470,12201 7467,12208 7457,12235 L 7433,12306 Z"/>
        </g>
       </g>
       <g class="com.sun.star.drawing.ClosedBezierShape">
        <g id="id20">
         <rect class="BoundingBox" stroke="none" fill="none" x="7581" y="12306" width="52" height="138"/>
         <path fill="rgb(0,0,0)" stroke="none" d="M 7620,12351 C 7620,12374 7617,12402 7590,12430 7588,12432 7588,12434 7588,12436 7588,12439 7591,12443 7593,12443 7599,12443 7631,12407 7631,12354 7631,12327 7622,12306 7603,12306 7591,12306 7582,12317 7582,12331 7582,12345 7591,12358 7605,12358 7614,12358 7620,12351 7620,12351 Z"/>
        </g>
       </g>
       <g class="com.sun.star.drawing.ClosedBezierShape">
        <g id="id21">
         <rect class="BoundingBox" stroke="none" fill="none" x="7668" y="12066" width="169" height="382"/>
         <path fill="rgb(0,0,0)" stroke="none" d="M 7836,12082 C 7836,12075 7831,12066 7820,12066 7810,12066 7799,12079 7799,12091 7799,12098 7803,12107 7814,12107 7825,12107 7836,12097 7836,12082 Z M 7754,12379 C 7748,12409 7728,12434 7705,12434 7700,12434 7696,12434 7691,12432 7702,12427 7705,12416 7705,12409 7705,12398 7697,12393 7690,12393 7677,12393 7668,12406 7668,12420 7668,12436 7683,12446 7707,12446 7728,12446 7774,12430 7785,12377 L 7820,12221 C 7820,12216 7822,12212 7822,12205 7822,12182 7803,12164 7780,12164 7739,12164 7714,12224 7714,12232 7714,12237 7719,12237 7720,12237 7725,12237 7725,12235 7728,12228 7737,12203 7757,12176 7779,12176 7790,12176 7793,12184 7793,12198 7793,12203 7791,12208 7791,12210 L 7754,12379 Z"/>
        </g>
       </g>
       <g class="com.sun.star.drawing.PolyPolygonShape">
        <g id="id22">
         <rect class="BoundingBox" stroke="none" fill="none" x="7909" y="11663" width="106" height="751"/>
         <path fill="rgb(0,0,0)" stroke="none" d="M 8014,12413 L 8014,11663 7909,11663 7909,11688 7992,11688 7992,12388 7909,12388 7909,12413 8014,12413 Z"/>
        </g>
       </g>
       <g class="com.sun.star.drawing.ClosedBezierShape">
        <g id="id23">
         <rect class="BoundingBox" stroke="none" fill="none" x="8147" y="11508" width="171" height="294"/>
         <path fill="rgb(0,0,0)" stroke="none" d="M 8317,11720 L 8303,11720 C 8303,11731 8298,11756 8294,11761 8291,11763 8262,11763 8255,11763 L 8186,11763 C 8226,11722 8238,11710 8262,11690 8291,11663 8317,11637 8317,11594 8317,11541 8275,11509 8228,11509 8180,11509 8148,11548 8148,11587 8148,11610 8165,11612 8168,11612 8177,11612 8188,11605 8188,11589 8188,11582 8186,11566 8166,11566 8177,11534 8203,11525 8222,11525 8260,11525 8280,11559 8280,11594 8280,11633 8255,11663 8243,11679 L 8151,11784 C 8148,11788 8148,11788 8148,11800 L 8305,11800 8317,11720 Z"/>
        </g>
       </g>
       <g class="com.sun.star.drawing.ClosedBezierShape">
        <g id="id24">
         <rect class="BoundingBox" stroke="none" fill="none" x="8515" y="11830" width="363" height="419"/>
         <path fill="rgb(0,0,0)" stroke="none" d="M 8707,12052 L 8858,12052 C 8866,12052 8876,12052 8876,12040 8876,12026 8866,12026 8858,12026 L 8707,12026 8707,11852 C 8707,11843 8707,11830 8697,11830 8684,11830 8684,11843 8684,11852 L 8684,12026 8534,12026 C 8526,12026 8515,12026 8515,12040 8515,12052 8526,12052 8534,12052 L 8684,12052 8684,12226 C 8684,12235 8684,12248 8697,12248 8707,12248 8707,12235 8707,12226 L 8707,12052 Z"/>
        </g>
       </g>
       <g class="com.sun.star.drawing.ClosedBezierShape">
        <g id="id25">
         <rect class="BoundingBox" stroke="none" fill="none" x="9047" y="11919" width="214" height="286"/>
         <path fill="rgb(0,0,0)" stroke="none" d="M 9241,11958 C 9232,11958 9224,11958 9216,11967 9207,11976 9207,11987 9207,11992 9207,12006 9216,12013 9227,12013 9242,12013 9258,11999 9258,11972 9258,11942 9232,11919 9193,11919 9119,11919 9047,12010 9047,12097 9047,12153 9079,12203 9135,12203 9213,12203 9259,12137 9259,12129 9259,12125 9256,12121 9252,12121 9250,12121 9249,12123 9245,12127 9202,12189 9142,12189 9136,12189 9102,12189 9087,12159 9087,12121 9087,12095 9098,12034 9116,11995 9133,11960 9164,11933 9193,11933 9212,11933 9233,11940 9241,11958 Z"/>
        </g>
       </g>
       <g class="com.sun.star.drawing.ClosedBezierShape">
        <g id="id26">
         <rect class="BoundingBox" stroke="none" fill="none" x="9279" y="11919" width="234" height="286"/>
         <path fill="rgb(0,0,0)" stroke="none" d="M 9511,12026 C 9511,11960 9475,11919 9425,11919 9352,11919 9279,12008 9279,12097 9279,12159 9316,12203 9367,12203 9439,12203 9511,12116 9511,12026 Z M 9367,12189 C 9344,12189 9319,12169 9319,12121 9319,12091 9333,12022 9352,11990 9378,11942 9410,11933 9424,11933 9456,11933 9473,11963 9473,12001 9473,12026 9462,12091 9441,12132 9422,12168 9392,12189 9367,12189 Z"/>
        </g>
       </g>
       <g class="com.sun.star.drawing.ClosedBezierShape">
        <g id="id27">
         <rect class="BoundingBox" stroke="none" fill="none" x="9534" y="11919" width="296" height="286"/>
         <path fill="rgb(0,0,0)" stroke="none" d="M 9567,12159 C 9565,12169 9562,12184 9562,12187 9562,12198 9568,12203 9578,12203 9584,12203 9593,12198 9598,12185 9598,12185 9604,12155 9607,12139 L 9619,12082 C 9622,12070 9625,12056 9628,12042 9631,12031 9634,12011 9636,12010 9644,11990 9673,11933 9724,11933 9748,11933 9753,11956 9753,11978 9753,12015 9727,12097 9717,12123 9713,12137 9713,12145 9713,12152 9713,12182 9731,12203 9756,12203 9807,12203 9828,12113 9828,12107 9828,12100 9822,12100 9820,12100 9816,12100 9816,12102 9813,12113 9802,12155 9784,12189 9757,12189 9748,12189 9745,12184 9745,12169 9745,12153 9750,12137 9754,12125 9765,12091 9787,12022 9787,11987 9787,11944 9764,11919 9725,11919 9676,11919 9650,11960 9641,11974 9637,11939 9616,11919 9591,11919 9567,11919 9556,11944 9551,11955 9542,11976 9534,12013 9534,12015 9534,12022 9539,12022 9541,12022 9547,12022 9547,12022 9550,12008 9559,11963 9570,11933 9590,11933 9601,11933 9607,11940 9607,11962 9607,11974 9605,11981 9598,12015 L 9567,12159 Z"/>
        </g>
       </g>
       <g class="com.sun.star.drawing.ClosedBezierShape">
        <g id="id28">
         <rect class="BoundingBox" stroke="none" fill="none" x="9869" y="11919" width="202" height="286"/>
         <path fill="rgb(0,0,0)" stroke="none" d="M 10054,11962 C 10039,11962 10028,11976 10028,11990 10028,11999 10033,12008 10045,12008 10057,12008 10070,11997 10070,11972 10070,11946 10046,11919 10005,11919 9933,11919 9913,11983 9913,12011 9913,12059 9954,12070 9970,12074 9997,12079 10026,12086 10026,12121 10026,12137 10013,12189 9948,12189 9940,12189 9899,12189 9887,12157 9907,12159 9920,12141 9920,12123 9920,12109 9911,12102 9900,12102 9887,12102 9870,12114 9870,12143 9870,12178 9900,12203 9948,12203 10036,12203 10057,12127 10057,12100 10057,12077 10046,12061 10040,12054 10025,12036 10010,12033 9985,12027 9966,12022 9943,12018 9943,11990 9943,11971 9957,11933 10005,11933 10019,11933 10046,11937 10054,11962 Z"/>
        </g>
       </g>
       <g class="com.sun.star.drawing.ClosedBezierShape">
        <g id="id29">
         <rect class="BoundingBox" stroke="none" fill="none" x="10106" y="11803" width="169" height="402"/>
         <path fill="rgb(0,0,0)" stroke="none" d="M 10206,11946 L 10257,11946 C 10268,11946 10274,11946 10274,11933 10274,11926 10268,11926 10259,11926 L 10211,11926 C 10231,11837 10232,11825 10232,11821 10232,11811 10226,11804 10217,11804 10216,11804 10200,11804 10196,11827 L 10174,11926 10123,11926 C 10113,11926 10106,11926 10106,11939 10106,11946 10111,11946 10122,11946 L 10169,11946 C 10131,12123 10128,12134 10128,12145 10128,12178 10149,12203 10179,12203 10234,12203 10265,12111 10265,12107 10265,12100 10260,12100 10259,12100 10254,12100 10252,12102 10251,12109 10226,12175 10199,12189 10180,12189 10168,12189 10163,12182 10163,12161 10163,12145 10163,12141 10166,12130 L 10206,11946 Z"/>
        </g>
       </g>
       <g class="com.sun.star.drawing.ClosedBezierShape">
        <g id="id30">
         <rect class="BoundingBox" stroke="none" fill="none" x="10407" y="11725" width="513" height="627"/>
         <path fill="rgb(0,0,0)" stroke="none" d="M 10606,12059 L 10414,12335 C 10409,12340 10408,12342 10408,12345 10408,12351 10414,12351 10423,12351 L 10872,12351 10918,12196 10906,12196 C 10892,12242 10855,12281 10809,12299 10801,12303 10763,12317 10683,12317 L 10454,12317 10641,12049 C 10644,12043 10646,12042 10646,12038 10646,12036 10646,12034 10643,12029 L 10466,11750 10681,11750 C 10743,11750 10867,11756 10906,11871 L 10918,11871 10872,11725 10423,11725 C 10408,11725 10408,11725 10408,11745 L 10606,12059 Z"/>
        </g>
       </g>
       <g class="com.sun.star.drawing.ClosedBezierShape">
        <g id="id31">
         <rect class="BoundingBox" stroke="none" fill="none" x="10971" y="12069" width="313" height="315"/>
         <path fill="rgb(0,0,0)" stroke="none" d="M 11140,12081 C 11135,12072 11135,12070 11127,12070 11123,12070 11118,12072 11115,12079 L 10975,12372 C 10972,12377 10972,12379 10972,12379 10972,12382 10975,12382 10981,12382 L 11273,12382 C 11279,12382 11283,12382 11283,12379 11283,12379 11283,12377 11279,12372 L 11140,12081 Z M 11113,12113 L 11226,12347 11003,12347 11113,12113 Z"/>
        </g>
       </g>
       <g class="com.sun.star.drawing.ClosedBezierShape">
        <g id="id32">
         <rect class="BoundingBox" stroke="none" fill="none" x="11736" y="11658" width="141" height="293"/>
         <path fill="rgb(0,0,0)" stroke="none" d="M 11822,11670 C 11822,11658 11822,11658 11811,11658 11787,11686 11751,11686 11736,11686 L 11736,11702 C 11745,11702 11770,11702 11791,11690 L 11791,11914 C 11791,11928 11791,11933 11753,11933 L 11739,11933 11739,11949 C 11745,11949 11793,11947 11807,11947 11819,11947 11867,11949 11876,11949 L 11876,11933 11861,11933 C 11822,11933 11822,11928 11822,11914 L 11822,11670 Z"/>
        </g>
       </g>
       <g class="com.sun.star.drawing.PolyPolygonShape">
        <g id="id33">
         <rect class="BoundingBox" stroke="none" fill="none" x="11485" y="12025" width="637" height="29"/>
         <path fill="rgb(0,0,0)" stroke="none" d="M 11802,12052 L 11485,12052 11485,12026 12120,12026 12120,12052 11802,12052 Z"/>
        </g>
       </g>
       <g class="com.sun.star.drawing.ClosedBezierShape">
        <g id="id34">
         <rect class="BoundingBox" stroke="none" fill="none" x="11511" y="12119" width="296" height="320"/>
         <path fill="rgb(0,0,0)" stroke="none" d="M 11805,12125 C 11805,12123 11804,12120 11801,12120 11798,12120 11798,12120 11793,12125 L 11765,12159 C 11762,12153 11741,12120 11695,12120 11602,12120 11512,12214 11512,12313 11512,12384 11561,12438 11628,12438 11648,12438 11685,12432 11724,12395 11755,12365 11762,12327 11762,12324 11762,12317 11759,12317 11756,12317 11751,12317 11751,12320 11750,12324 11735,12384 11681,12422 11635,12422 11595,12422 11550,12397 11550,12327 11550,12315 11552,12246 11596,12189 11622,12155 11662,12136 11698,12136 11742,12136 11768,12173 11768,12221 11768,12233 11767,12237 11767,12240 11767,12246 11771,12246 11774,12246 11781,12246 11781,12244 11782,12235 L 11805,12125 Z"/>
        </g>
       </g>
       <g class="com.sun.star.drawing.ClosedBezierShape">
        <g id="id35">
         <rect class="BoundingBox" stroke="none" fill="none" x="11845" y="12068" width="139" height="211"/>
         <path fill="rgb(0,0,0)" stroke="none" d="M 11982,12217 L 11970,12217 C 11970,12223 11967,12242 11962,12246 11959,12248 11937,12248 11933,12248 L 11879,12248 C 11897,12232 11917,12214 11934,12201 11959,12182 11982,12164 11982,12130 11982,12091 11948,12068 11910,12068 11873,12068 11845,12093 11845,12123 11845,12139 11858,12143 11861,12143 11868,12143 11878,12137 11878,12125 11878,12113 11870,12107 11862,12105 11870,12091 11885,12082 11904,12082 11930,12082 11953,12100 11953,12130 11953,12157 11936,12178 11916,12198 L 11848,12263 C 11845,12265 11845,12265 11845,12269 L 11845,12278 11973,12278 11982,12217 Z"/>
        </g>
       </g>
       <g class="com.sun.star.drawing.ClosedBezierShape">
        <g id="id36">
         <rect class="BoundingBox" stroke="none" fill="none" x="11817" y="12350" width="251" height="227"/>
         <path fill="rgb(0,0,0)" stroke="none" d="M 11953,12358 C 11950,12352 11948,12351 11942,12351 11936,12351 11934,12352 11931,12358 L 11819,12567 C 11818,12571 11818,12571 11818,12572 11818,12576 11821,12576 11824,12576 L 12060,12576 C 12065,12576 12067,12576 12067,12572 12067,12571 12067,12571 12065,12567 L 11953,12358 Z M 11933,12382 L 12020,12548 11844,12548 11933,12382 Z"/>
        </g>
       </g>
       <g class="com.sun.star.drawing.ClosedBezierShape">
        <g id="id37">
         <rect class="BoundingBox" stroke="none" fill="none" x="12355" y="11663" width="145" height="751"/>
         <path fill="rgb(0,0,0)" stroke="none" d="M 12499,12407 C 12499,12404 12497,12404 12496,12402 12471,12370 12434,12320 12411,12217 12399,12161 12394,12097 12394,12038 12394,11875 12428,11759 12494,11678 12499,11672 12499,11670 12499,11670 12499,11663 12494,11663 12491,11663 12483,11663 12454,11701 12446,11710 12391,11786 12356,11898 12356,12038 12356,12127 12369,12253 12440,12358 12446,12366 12482,12413 12491,12413 12494,12413 12499,12413 12499,12407 Z"/>
        </g>
       </g>
       <g class="com.sun.star.drawing.ClosedBezierShape">
        <g id="id38">
         <rect class="BoundingBox" stroke="none" fill="none" x="12609" y="11634" width="197" height="311"/>
         <path fill="rgb(0,0,0)" stroke="none" d="M 12803,11647 C 12805,11647 12805,11642 12805,11640 12805,11638 12803,11635 12798,11635 12792,11635 12760,11638 12751,11638 12748,11640 12742,11640 12742,11649 12742,11656 12748,11656 12752,11656 12771,11656 12771,11658 12771,11662 12771,11665 12769,11669 12769,11672 L 12746,11772 C 12738,11757 12726,11747 12708,11747 12659,11747 12609,11807 12609,11871 12609,11914 12634,11944 12666,11944 12688,11944 12706,11931 12722,11914 12728,11940 12751,11944 12760,11944 12774,11944 12783,11935 12791,11921 12798,11903 12803,11878 12803,11876 12803,11871 12798,11871 12797,11871 12792,11871 12792,11873 12789,11885 12785,11907 12777,11931 12762,11931 12751,11931 12749,11923 12749,11910 12749,11901 12749,11898 12751,11892 L 12803,11647 Z M 12723,11885 C 12720,11898 12711,11907 12703,11914 12700,11917 12685,11931 12668,11931 12654,11931 12640,11921 12640,11889 12640,11866 12651,11818 12660,11800 12677,11765 12697,11759 12708,11759 12734,11759 12742,11791 12742,11797 12742,11798 12742,11802 12740,11804 L 12723,11885 Z"/>
        </g>
       </g>
       <g class="com.sun.star.drawing.ClosedBezierShape">
        <g id="id39">
         <rect class="BoundingBox" stroke="none" fill="none" x="12836" y="11631" width="296" height="320"/>
         <path fill="rgb(0,0,0)" stroke="none" d="M 13130,11637 C 13130,11635 13129,11631 13126,11631 13123,11631 13123,11631 13118,11637 L 13091,11670 C 13087,11665 13066,11631 13020,11631 12928,11631 12837,11725 12837,11825 12837,11896 12886,11949 12954,11949 12974,11949 13011,11944 13049,11907 13080,11876 13087,11839 13087,11836 13087,11828 13084,11828 13081,11828 13077,11828 13077,11832 13075,11836 13060,11896 13006,11933 12960,11933 12920,11933 12875,11908 12875,11839 12875,11827 12877,11757 12921,11701 12948,11667 12988,11647 13023,11647 13067,11647 13094,11685 13094,11733 13094,11745 13092,11749 13092,11752 13092,11757 13097,11757 13100,11757 13106,11757 13106,11756 13107,11747 L 13130,11637 Z"/>
        </g>
       </g>
       <g class="com.sun.star.drawing.ClosedBezierShape">
        <g id="id40">
         <rect class="BoundingBox" stroke="none" fill="none" x="13142" y="11776" width="251" height="228"/>
         <path fill="rgb(0,0,0)" stroke="none" d="M 13278,11784 C 13275,11779 13273,11777 13267,11777 13261,11777 13260,11779 13257,11784 L 13144,11994 C 13143,11997 13143,11997 13143,11999 13143,12002 13146,12002 13149,12002 L 13386,12002 C 13390,12002 13392,12002 13392,11999 13392,11997 13392,11997 13390,11994 L 13278,11784 Z M 13258,11809 L 13346,11974 13169,11974 13258,11809 Z"/>
        </g>
       </g>
       <g class="com.sun.star.drawing.PolyPolygonShape">
        <g id="id41">
         <rect class="BoundingBox" stroke="none" fill="none" x="12586" y="12025" width="861" height="29"/>
         <path fill="rgb(0,0,0)" stroke="none" d="M 13017,12052 L 12586,12052 12586,12026 13446,12026 13446,12052 13017,12052 Z"/>
        </g>
       </g>
       <g class="com.sun.star.drawing.ClosedBezierShape">
        <g id="id42">
         <rect class="BoundingBox" stroke="none" fill="none" x="12844" y="12105" width="197" height="311"/>
         <path fill="rgb(0,0,0)" stroke="none" d="M 13038,12118 C 13040,12118 13040,12113 13040,12111 13040,12109 13038,12105 13034,12105 13027,12105 12995,12109 12986,12109 12983,12111 12977,12111 12977,12120 12977,12127 12983,12127 12988,12127 13006,12127 13006,12129 13006,12132 13006,12136 13004,12139 13004,12143 L 12983,12242 C 12974,12228 12961,12217 12943,12217 12894,12217 12845,12278 12845,12342 12845,12384 12869,12414 12901,12414 12923,12414 12941,12402 12957,12384 12963,12411 12986,12414 12995,12414 13009,12414 13018,12406 13026,12391 13034,12374 13038,12349 13038,12347 13038,12342 13034,12342 13032,12342 13027,12342 13027,12343 13024,12356 13020,12377 13012,12402 12997,12402 12986,12402 12984,12393 12984,12381 12984,12372 12984,12368 12986,12363 L 13038,12118 Z M 12958,12356 C 12955,12368 12946,12377 12938,12384 12935,12388 12920,12402 12903,12402 12889,12402 12875,12391 12875,12359 12875,12336 12886,12288 12895,12271 12912,12235 12932,12230 12943,12230 12969,12230 12977,12262 12977,12267 12977,12269 12977,12272 12975,12274 L 12958,12356 Z"/>
        </g>
       </g>
       <g class="com.sun.star.drawing.ClosedBezierShape">
        <g id="id43">
         <rect class="BoundingBox" stroke="none" fill="none" x="13061" y="12135" width="131" height="281"/>
         <path fill="rgb(0,0,0)" stroke="none" d="M 13140,12237 L 13178,12237 C 13186,12237 13190,12237 13190,12228 13190,12221 13186,12221 13180,12221 L 13143,12221 13157,12155 C 13157,12153 13158,12152 13158,12150 13158,12141 13152,12136 13146,12136 13135,12136 13130,12143 13127,12155 13124,12166 13129,12145 13112,12221 L 13074,12221 C 13066,12221 13061,12221 13061,12230 13061,12237 13066,12237 13072,12237 L 13109,12237 13086,12340 C 13084,12352 13081,12366 13081,12374 13081,12398 13100,12414 13121,12414 13164,12414 13189,12354 13189,12347 13189,12342 13183,12342 13183,12342 13178,12342 13177,12343 13174,12351 13163,12377 13144,12402 13123,12402 13115,12402 13109,12397 13109,12381 13109,12377 13111,12366 13112,12363 L 13140,12237 Z"/>
        </g>
       </g>
       <g class="com.sun.star.drawing.ClosedBezierShape">
        <g id="id44">
         <rect class="BoundingBox" stroke="none" fill="none" x="13533" y="11663" width="145" height="751"/>
         <path fill="rgb(0,0,0)" stroke="none" d="M 13676,12038 C 13676,11949 13662,11825 13590,11718 13586,11711 13550,11663 13539,11663 13536,11663 13533,11665 13533,11670 13533,11672 13535,11674 13536,11676 13563,11708 13598,11759 13621,11859 13633,11915 13638,11979 13638,12038 13638,12102 13633,12166 13619,12226 13598,12313 13566,12365 13538,12398 13533,12404 13533,12406 13533,12407 13533,12413 13536,12413 13539,12413 13549,12413 13578,12375 13584,12366 13641,12290 13676,12178 13676,12038 Z"/>
        </g>
       </g>
       <g class="com.sun.star.drawing.ClosedBezierShape">
        <g id="id45">
         <rect class="BoundingBox" stroke="none" fill="none" x="13780" y="11500" width="171" height="293"/>
         <path fill="rgb(0,0,0)" stroke="none" d="M 13950,11711 L 13936,11711 C 13936,11722 13931,11747 13927,11752 13924,11754 13895,11754 13888,11754 L 13819,11754 C 13859,11713 13872,11701 13895,11681 13924,11654 13950,11628 13950,11585 13950,11532 13908,11500 13861,11500 13813,11500 13781,11539 13781,11578 13781,11601 13798,11603 13801,11603 13810,11603 13821,11596 13821,11580 13821,11573 13819,11557 13799,11557 13810,11525 13836,11516 13855,11516 13893,11516 13913,11550 13913,11585 13913,11624 13888,11654 13876,11670 L 13784,11775 C 13781,11779 13781,11779 13781,11791 L 13938,11791 13950,11711 Z"/>
        </g>
       </g>
      </g>
      <g class="Group">
       <g class="com.sun.star.drawing.PolyPolygonShape">
        <g id="id46">
         <rect class="BoundingBox" stroke="none" fill="none" x="15800" y="11552" width="3963" height="1050"/>
         <path fill="rgb(255,255,255)" stroke="none" d="M 17781,12600 L 15800,12600 15800,11553 19762,11553 19762,12600 17781,12600 Z"/>
        </g>
       </g>
       <g class="com.sun.star.drawing.ClosedBezierShape">
        <g id="id47">
         <rect class="BoundingBox" stroke="none" fill="none" x="15825" y="11873" width="353" height="362"/>
         <path fill="rgb(0,0,0)" stroke="none" d="M 16177,11879 C 16177,11876 16175,11873 16171,11873 16170,11873 16168,11873 16163,11879 L 16129,11917 C 16123,11910 16101,11873 16046,11873 15936,11873 15825,11982 15825,12097 15825,12179 15884,12233 15960,12233 16002,12233 16039,12212 16066,12190 16112,12149 16121,12104 16121,12103 16121,12099 16115,12099 16114,12099 16111,12099 16109,12099 16108,12103 16104,12117 16093,12152 16058,12181 16024,12209 15993,12218 15967,12218 15923,12218 15870,12191 15870,12114 15870,12086 15881,12006 15930,11949 15960,11914 16006,11889 16051,11889 16101,11889 16130,11926 16130,11984 16130,12003 16129,12005 16129,12009 16129,12015 16135,12015 16136,12015 16143,12015 16143,12013 16144,12005 L 16177,11879 Z"/>
        </g>
       </g>
       <g class="com.sun.star.drawing.ClosedBezierShape">
        <g id="id48">
         <rect class="BoundingBox" stroke="none" fill="none" x="16170" y="12048" width="285" height="248"/>
         <path fill="rgb(0,0,0)" stroke="none" d="M 16324,12057 C 16319,12050 16319,12048 16312,12048 16308,12048 16304,12050 16301,12055 L 16174,12286 C 16171,12291 16171,12292 16171,12292 16171,12295 16174,12295 16179,12295 L 16445,12295 C 16451,12295 16454,12295 16454,12292 16454,12292 16454,12291 16451,12286 L 16324,12057 Z M 16300,12082 L 16402,12267 16199,12267 16300,12082 Z"/>
        </g>
       </g>
       <g class="com.sun.star.drawing.ClosedBezierShape">
        <g id="id49">
         <rect class="BoundingBox" stroke="none" fill="none" x="16662" y="12039" width="331" height="119"/>
         <path fill="rgb(0,0,0)" stroke="none" d="M 16975,12059 C 16982,12059 16991,12059 16991,12050 16991,12040 16982,12040 16975,12040 L 16679,12040 C 16672,12040 16662,12040 16662,12050 16662,12059 16672,12059 16679,12059 L 16975,12059 Z M 16975,12156 C 16982,12156 16991,12156 16991,12146 16991,12137 16982,12137 16975,12137 L 16679,12137 C 16672,12137 16662,12137 16662,12146 16662,12156 16672,12156 16679,12156 L 16975,12156 Z"/>
        </g>
       </g>
       <g class="com.sun.star.drawing.ClosedBezierShape">
        <g id="id50">
         <rect class="BoundingBox" stroke="none" fill="none" x="18187" y="11540" width="294" height="361"/>
         <path fill="rgb(0,0,0)" stroke="none" d="M 18480,11546 C 18480,11543 18480,11540 18475,11540 18473,11540 18471,11540 18466,11547 L 18442,11575 C 18429,11553 18404,11540 18372,11540 18309,11540 18250,11597 18250,11656 18250,11697 18275,11719 18300,11726 L 18354,11740 C 18372,11744 18400,11753 18400,11793 18400,11837 18359,11884 18310,11884 18278,11884 18223,11873 18223,11812 18223,11800 18226,11788 18226,11785 18228,11784 18228,11782 18228,11782 18228,11777 18225,11777 18222,11777 18219,11777 18218,11777 18216,11778 18215,11779 18187,11893 18187,11894 18187,11897 18190,11900 18193,11900 18195,11900 18195,11898 18201,11891 L 18226,11863 C 18247,11893 18281,11900 18309,11900 18376,11900 18435,11834 18435,11772 18435,11737 18418,11721 18411,11715 18400,11702 18391,11701 18348,11690 18337,11687 18319,11681 18314,11681 18302,11676 18285,11662 18285,11635 18285,11596 18324,11554 18370,11554 18412,11554 18442,11575 18442,11631 18442,11646 18440,11655 18440,11658 18440,11659 18440,11663 18446,11663 18452,11663 18452,11662 18453,11653 L 18480,11546 Z"/>
        </g>
       </g>
       <g class="com.sun.star.drawing.ClosedBezierShape">
        <g id="id51">
         <rect class="BoundingBox" stroke="none" fill="none" x="18483" y="11716" width="285" height="248"/>
         <path fill="rgb(0,0,0)" stroke="none" d="M 18636,11725 C 18632,11718 18632,11716 18625,11716 18621,11716 18617,11718 18614,11723 L 18487,11954 C 18484,11959 18484,11960 18484,11960 18484,11963 18487,11963 18492,11963 L 18758,11963 C 18764,11963 18767,11963 18767,11960 18767,11960 18767,11959 18764,11954 L 18636,11725 Z M 18613,11750 L 18715,11935 18512,11935 18613,11750 Z"/>
        </g>
       </g>
       <g class="com.sun.star.drawing.PolyPolygonShape">
        <g id="id52">
         <rect class="BoundingBox" stroke="none" fill="none" x="17211" y="12087" width="2552" height="23"/>
         <path fill="rgb(0,0,0)" stroke="none" d="M 18487,12109 L 17211,12109 17211,12088 19762,12088 19762,12109 18487,12109 Z"/>
        </g>
       </g>
       <g class="com.sun.star.drawing.ClosedBezierShape">
        <g id="id53">
         <rect class="BoundingBox" stroke="none" fill="none" x="17232" y="12340" width="228" height="226"/>
         <path fill="rgb(0,0,0)" stroke="none" d="M 17397,12373 C 17388,12355 17374,12341 17351,12341 17294,12341 17232,12414 17232,12487 17232,12533 17259,12565 17298,12565 17308,12565 17333,12564 17362,12529 17367,12550 17383,12565 17407,12565 17425,12565 17437,12554 17444,12538 17452,12520 17459,12489 17459,12489 17459,12484 17455,12484 17453,12484 17448,12484 17448,12487 17446,12494 17438,12526 17428,12554 17409,12554 17395,12554 17393,12541 17393,12531 17393,12520 17395,12517 17400,12495 17406,12474 17406,12470 17411,12450 L 17428,12382 C 17432,12368 17432,12366 17432,12365 17432,12356 17427,12351 17418,12351 17406,12351 17399,12362 17397,12373 Z M 17365,12501 C 17362,12510 17362,12510 17355,12519 17333,12547 17313,12554 17299,12554 17274,12554 17267,12527 17267,12508 17267,12484 17283,12422 17295,12400 17311,12370 17332,12352 17353,12352 17385,12352 17392,12393 17392,12396 17392,12398 17390,12401 17389,12404 L 17365,12501 Z"/>
        </g>
       </g>
       <g class="com.sun.star.drawing.ClosedBezierShape">
        <g id="id54">
         <rect class="BoundingBox" stroke="none" fill="none" x="17492" y="12186" width="156" height="232"/>
         <path fill="rgb(0,0,0)" stroke="none" d="M 17647,12354 L 17634,12354 C 17634,12362 17630,12382 17626,12386 17623,12387 17596,12387 17591,12387 L 17528,12387 C 17564,12355 17575,12345 17596,12330 17623,12309 17647,12288 17647,12254 17647,12212 17609,12187 17565,12187 17522,12187 17493,12218 17493,12249 17493,12267 17508,12268 17511,12268 17519,12268 17529,12263 17529,12250 17529,12244 17528,12232 17509,12232 17519,12207 17543,12200 17560,12200 17595,12200 17613,12226 17613,12254 17613,12285 17591,12309 17579,12321 L 17495,12404 C 17493,12407 17493,12407 17493,12417 L 17635,12417 17647,12354 Z"/>
        </g>
       </g>
       <g class="com.sun.star.drawing.ClosedBezierShape">
        <g id="id55">
         <rect class="BoundingBox" stroke="none" fill="none" x="17828" y="12270" width="331" height="331"/>
         <path fill="rgb(0,0,0)" stroke="none" d="M 18004,12446 L 18141,12446 C 18148,12446 18158,12446 18158,12436 18158,12425 18148,12425 18141,12425 L 18004,12425 18004,12288 C 18004,12281 18004,12271 17994,12271 17983,12271 17983,12281 17983,12288 L 17983,12425 17845,12425 C 17838,12425 17829,12425 17829,12436 17829,12446 17838,12446 17845,12446 L 17983,12446 17983,12583 C 17983,12590 17983,12600 17994,12600 18004,12600 18004,12590 18004,12583 L 18004,12446 Z"/>
        </g>
       </g>
       <g class="com.sun.star.drawing.ClosedBezierShape">
        <g id="id56">
         <rect class="BoundingBox" stroke="none" fill="none" x="18314" y="12216" width="184" height="350"/>
         <path fill="rgb(0,0,0)" stroke="none" d="M 18410,12222 C 18410,12222 18410,12216 18403,12216 18391,12216 18355,12221 18342,12222 18338,12222 18333,12222 18333,12232 18333,12237 18338,12237 18345,12237 18369,12237 18370,12240 18370,12246 18370,12249 18365,12265 18363,12277 L 18323,12438 C 18316,12461 18314,12470 18314,12487 18314,12534 18341,12565 18377,12565 18436,12565 18496,12491 18496,12419 18496,12375 18471,12341 18431,12341 18408,12341 18387,12355 18373,12370 L 18410,12222 Z M 18363,12408 C 18366,12398 18366,12397 18370,12391 18394,12359 18417,12352 18431,12352 18447,12352 18461,12366 18461,12398 18461,12428 18445,12484 18436,12503 18419,12536 18397,12554 18377,12554 18361,12554 18344,12540 18344,12503 18344,12495 18344,12485 18352,12454 L 18363,12408 Z"/>
        </g>
       </g>
       <g class="com.sun.star.drawing.ClosedBezierShape">
        <g id="id57">
         <rect class="BoundingBox" stroke="none" fill="none" x="18524" y="12186" width="156" height="232"/>
         <path fill="rgb(0,0,0)" stroke="none" d="M 18678,12354 L 18666,12354 C 18666,12362 18662,12382 18657,12386 18655,12387 18628,12387 18622,12387 L 18559,12387 C 18596,12355 18607,12345 18628,12330 18655,12309 18678,12288 18678,12254 18678,12212 18641,12187 18597,12187 18554,12187 18524,12218 18524,12249 18524,12267 18540,12268 18543,12268 18551,12268 18561,12263 18561,12250 18561,12244 18559,12232 18541,12232 18551,12207 18575,12200 18592,12200 18627,12200 18645,12226 18645,12254 18645,12285 18622,12309 18611,12321 L 18527,12404 C 18524,12407 18524,12407 18524,12417 L 18667,12417 18678,12354 Z"/>
        </g>
       </g>
       <g class="com.sun.star.drawing.ClosedBezierShape">
        <g id="id58">
         <rect class="BoundingBox" stroke="none" fill="none" x="18858" y="12270" width="331" height="331"/>
         <path fill="rgb(0,0,0)" stroke="none" d="M 19034,12446 L 19171,12446 C 19178,12446 19188,12446 19188,12436 19188,12425 19178,12425 19171,12425 L 19034,12425 19034,12288 C 19034,12281 19034,12271 19024,12271 19014,12271 19014,12281 19014,12288 L 19014,12425 18876,12425 C 18869,12425 18859,12425 18859,12436 18859,12446 18869,12446 18876,12446 L 19014,12446 19014,12583 C 19014,12590 19014,12600 19024,12600 19034,12600 19034,12590 19034,12583 L 19034,12446 Z"/>
        </g>
       </g>
       <g class="com.sun.star.drawing.ClosedBezierShape">
        <g id="id59">
         <rect class="BoundingBox" stroke="none" fill="none" x="19343" y="12340" width="195" height="226"/>
         <path fill="rgb(0,0,0)" stroke="none" d="M 19520,12372 C 19511,12372 19504,12372 19497,12379 19489,12386 19489,12394 19489,12398 19489,12410 19497,12415 19507,12415 19521,12415 19535,12404 19535,12383 19535,12359 19511,12341 19476,12341 19409,12341 19343,12412 19343,12481 19343,12526 19373,12565 19423,12565 19495,12565 19537,12513 19537,12506 19537,12503 19534,12501 19530,12501 19528,12501 19527,12502 19524,12505 19485,12554 19430,12554 19425,12554 19394,12554 19380,12530 19380,12501 19380,12480 19390,12432 19406,12401 19422,12373 19450,12352 19476,12352 19493,12352 19513,12358 19520,12372 Z"/>
        </g>
       </g>
       <g class="com.sun.star.drawing.ClosedBezierShape">
        <g id="id60">
         <rect class="BoundingBox" stroke="none" fill="none" x="19556" y="12186" width="156" height="232"/>
         <path fill="rgb(0,0,0)" stroke="none" d="M 19710,12354 L 19698,12354 C 19698,12362 19693,12382 19689,12386 19686,12387 19660,12387 19654,12387 L 19591,12387 C 19628,12355 19639,12345 19660,12330 19686,12309 19710,12288 19710,12254 19710,12212 19672,12187 19629,12187 19586,12187 19556,12218 19556,12249 19556,12267 19572,12268 19574,12268 19583,12268 19593,12263 19593,12250 19593,12244 19591,12232 19573,12232 19583,12207 19607,12200 19623,12200 19658,12200 19677,12226 19677,12254 19677,12285 19654,12309 19643,12321 L 19559,12404 C 19556,12407 19556,12407 19556,12417 L 19699,12417 19710,12354 Z"/>
        </g>
       </g>
      </g>
     </g>
    </g>
   </g>
  </g>
 </g>
</svg>